<?xml version='1.0' encoding='utf-8'?>
<svg xmlns="http://www.w3.org/2000/svg" enable-background="new 0 0 1224 792" version="1.1" viewBox="0 0 1224 792">
<path d="m580.5 340s-86-94-91-99.5-5-8.5-6.5-11.5 0.5-9-10.5-14.5c0 0-8.167-3.833-12.333-6.5s-9.5-6.333-11.167-7.5-4.167-2.167-3.833 0 8.9 12.721 10.667 13.833c4.167 2.622 3.623 4.044 4.167 5.667s0.5 2.334-1.167 2.667c0 0-6.167-0.333-8.333 0s-6.833 2.333-9.333 2.833-5.5 0.667-8.333 1.167-7.333 2.5-11.833 1.833c0 0-19.666-11.167-24.833-14.5s-6.167-4-9.5-5.333 1.333 4.833 2.833 6c0 0-11.167-7.333-12.167-7.333s-4.667 1.333 16.667 14.333c0 0-9.833-3.334-9.667-2.667s-0.667 2.5 9.5 5.667 12.167 3.833 14.5 5.5 9.5 5.5 9.5 5.5 3.667 4.167 21.167 1.667c0 0 20.5-0.333 23.5 0.333s9.207 1.167 15.354 11 55.979 99.5 101.65 128c0 0 15.5 11.333 20 2.083 0 0 10-18.25 11-30.25s1.25-40.75 0-50.75l-0.25-2.75s-29-52-34.25-65.25l-4-3.25s3.857 83.25 11.179 112.25c-2e-3 0 0.819 2.25-2.681 1.25z" fill="#231F20"/>
	<polygon points="496.57 560.45 200.7 500.55 301.16 265.61 497.89 298.07" fill="#F18EB9"/>
			<path d="m429.87 307.36l-3.789-1.282c7.121-21.049 13.364-50.091 2.663-68.905-6.362-11.187-16.015-13.667-16.708-13.831-10.097-1.544-19.277 0.696-27.284 6.661-24.144 17.986-30.766 64.237-31.036 66.197l-1.987-0.234-1.976-0.312c0.305-2.212 2.06-13.949 6.674-27.757 6.431-19.244 15.157-33.072 25.935-41.102 8.917-6.642 19.128-9.13 30.351-7.396 0.577 0.116 11.931 2.586 19.436 15.672 9.257 16.136 8.49 40.458-2.279 72.289z" fill="#F18EB9"/>
		<circle cx="351.73" cy="295.97" r="6.334" fill="#fff"/>
		<circle cx="426.68" cy="306.54" r="6.334" fill="#F18EB9"/>
	<polygon points="526.97 465.84 316.88 486.32 331.38 306.9 479.04 292.72" fill="#7C431C"/>
			<path d="m374.43 322.53c-0.02-0.207-0.112-0.771-0.251-1.646-4.054-25.574-8.46-71.631 7.574-92.755 4.798-6.32 11.105-9.987 18.747-10.899 1.201-0.265 8.536-1.524 16.681 4.825 20.123 15.683 24.008 60.589 23.725 95.5l-4-0.032c0.499-61.392-11.709-84.023-22.037-92.197-7.151-5.659-13.277-4.244-13.536-4.183l-0.26 0.048c-6.661 0.77-11.938 3.83-16.133 9.357-11.218 14.779-13.637 46.639-6.81 89.71 0.206 1.298 0.272 1.721 0.29 1.979l-3.99 0.293z" fill="#7C431C"/>
		<circle cx="377.42" cy="324.38" r="5.874" fill="#F18EB9"/>
		<circle cx="438.9" cy="317.54" r="5.874" fill="#F18EB9"/>
<path d="m417.81 228.03c1.329 1.519 3.913 4.936 4.825 6.357s-4.799 1.28-4.799 1.28-7.167-3.833-9.5-5.5-4.333-2.333-14.5-5.5-10.583-5.196-9.5-5.667c0.63-0.274 9.667 2.667 9.667 2.667-21.333-13-17.667-14.333-16.667-14.333s12.167 7.333 12.167 7.333c-1.5-1.167-7.833-7.333-2.833-6 3.469 0.925 4.183 2.246 9.5 5.333 15.5 9 18.697 11.329 18.697 11.329s1.541 1.098 2.943 2.701z" fill="#231F20"/>
<path d="m398.6 217.81s-3.679-4.106-3.856-6.397c-0.14-1.809 4.498 2.326 6.744 5.266 0.598 0.783 1.027 1.481 1.15 1.96 0.588 2.277-4.038-0.829-4.038-0.829z" fill="#231F20"/>
<path d="m407.07 221.5c1.742 0.314-3.332-2.52-6.01-5.366s-2.933-0.916-2.933-0.916 5.262 5.617 8.943 6.282z" fill="#231F20"/>
</svg>